<svg xmlns="http://www.w3.org/2000/svg" width="1015" height="340.835" data-name="Layer 1" color-interpolation="sRGB"><defs><clipPath id="a"><path d="M0 0h1014.43v418H0z" style="fill:none"/></clipPath><mask id="b" width="1200" height="447" x="-93" y="-29" maskUnits="userSpaceOnUse"><path d="M-93-29h1200v370H-93z" data-name="mask0 8919 7694" style="fill:#ffffff"/></mask></defs><g style="clip-path:url(#a)"><g style="mask:url(#b)"><path d="M40.351 384c-8.35 0-15.13-6.79-15.13-15.13V20c0-7.72 6.28-14 14-14h207.95c5.74 0 10.84 3.44 12.98 8.76l14.81 36.72c55.53.32 692.45.51 699.13.51 8.34 0 15.13 6.79 15.13 15.13v301.73c0 8.35-6.79 15.13-15.13 15.13H40.351z" style="fill:#fbb040"/><path d="M247.161 12a8 8 0 0 1 7.42 5.01l16.3 40.43c.2.35 703.19.56 703.19.56 5.04 0 9.13 4.09 9.13 9.13v301.73c0 5.04-4.09 9.13-9.13 9.13H40.351c-5.05 0-9.13-4.09-9.13-9.13V20c0-4.42 3.58-8 8-8h207.95m-.01-12H39.211c-11.03 0-20 8.97-20 20v348.87c0 11.65 9.48 21.13 21.13 21.13h933.73c11.65 0 21.13-9.48 21.13-21.13V67.13c0-11.65-9.48-21.13-21.13-21.13-222.95-.07-633.59-.25-695.07-.5l-13.3-32.98C262.631 4.91 255.351 0 247.151 0z" style="fill:#515979"/><path d="M983.211 90h-952v40h952z" style="fill:#fa963c"/><path d="M951.211 76h-888a6 6 0 0 0-6 6v52a6 6 0 0 0 6 6h888a6 6 0 0 0 6-6V82a6 6 0 0 0-6-6" style="fill:#fff"/><path d="M951.211 82v52h-888V82zm0-12h-888c-6.63 0-12 5.37-12 12v52c0 6.63 5.37 12 12 12h888c6.63 0 12-5.37 12-12V82c0-6.63-5.37-12-12-12" style="fill:#515979"/><path d="M951.211 94h-888v12h888z" style="fill:#a6e7fb"/><path d="M913.211 132c-12.13 0-22-9.87-22-22v-10c0-4.41 3.59-8 8-8s8 3.59 8 8v10c0 3.31 2.69 6 6 6s6-2.69 6-6V66c0-3.31-2.69-6-6-6s-6 2.69-6 6v8h-16v-8c0-12.13 9.87-22 22-22s22 9.87 22 22v44c0 12.13-9.87 22-22 22" style="fill:#ccc"/><path d="M913.211 48c9.94 0 18 8.06 18 18v44c0 9.94-8.06 18-18 18s-18-8.06-18-18v-10c0-2.21 1.79-4 4-4s4 1.79 4 4v10c0 5.52 4.48 10 10 10s10-4.48 10-10V66c0-5.52-4.48-10-10-10s-10 4.48-10 10v4h-8v-4c0-9.94 8.06-18 18-18m0-8c-14.34 0-26 11.66-26 26v12h24V66c0-1.1.9-2 2-2s2 .9 2 2v44c0 1.1-.9 2-2 2s-2-.9-2-2v-10c0-6.62-5.38-12-12-12s-12 5.38-12 12v10c0 14.34 11.66 26 26 26s26-11.66 26-26V66c0-14.34-11.66-26-26-26" style="fill:#515979"/><path d="M923.211 94v16c0 5.52-4.48 10-10 10s-10-4.48-10-10v-10c0-2.21-1.79-4-4-4s-4 1.79-4 4v10c0 9.94 8.06 18 18 18s18-8.06 18-18V94z" style="fill:#9e9e9e"/><path d="M37.21 412c-6.54 0-11.87-5.25-12-11.75L6.07 125.28c-.36-3.35.71-6.7 2.94-9.23 2.28-2.57 5.55-4.05 8.99-4.05h978.429c3.44 0 6.71 1.48 8.99 4.05 2.24 2.53 3.3 5.88 2.94 9.23L989.21 400.24c-.13 6.5-5.461 11.75-12 11.75h-940z" style="fill:#FFD886"/><path d="M996.43 118c3.61 0 6.4 3.16 5.95 6.74L983.21 400c0 3.31-2.69 6-6 6h-940c-3.31 0-6-2.69-6-6L12.05 124.74C11.61 121.16 14.4 118 18 118zm0-12H18A17.994 17.994 0 0 0 .1 125.8l19.13 274.73c.28 9.68 8.24 17.47 17.99 17.47h940c9.75 0 17.71-7.79 17.99-17.47l19.13-274.73c.5-4.98-1.1-9.96-4.42-13.72a18.02 18.02 0 0 0-13.49-6.08" style="fill:#515979"/><path d="M18 130h978.43c2.3 0 4.26 1.29 5.27 3.15l.69-8.42c.44-3.58-2.35-6.74-5.95-6.74H18c-3.61 0-6.4 3.16-5.95 6.74l.69 8.42c1.01-1.86 2.97-3.15 5.27-3.15z" style="fill:#ffebc2"/><path d="m662.119 223.41-11.36-.99 2.8-31.98-6.27-.55.88-10.08 24.13 2.11-.88 10.08-6.51-.57-2.8 31.98zM706.55 206.25c-.56 6.41-2.48 11.49-5.75 15.25-3.26 3.74-7.22 5.41-11.88 5-4.14-.36-7.56-2.21-10.25-5.54-3.38-4.21-4.73-10.2-4.05-17.98.65-7.45 3.09-12.97 7.32-16.57 3.14-2.67 6.69-3.83 10.65-3.49 4.85.42 8.53 2.74 11.06 6.95 2.52 4.21 3.49 9.67 2.9 16.37zm-11.8-.95c.67-7.61-.35-11.53-3.03-11.77-1.34-.12-2.5.79-3.48 2.71q-1.41 2.67-1.89 8.07c-.31 3.54-.18 6.32.38 8.34s1.5 3.08 2.81 3.2c1.34.12 2.46-.75 3.36-2.62.93-1.86 1.55-4.5 1.85-7.94zM723.161 228.75l-11.36-.99 3.68-42.06 11 .96c5.48.48 9.45 1.95 11.91 4.42 2.89 2.91 4.14 6.7 3.73 11.39-.45 5.1-2.44 8.76-5.98 10.98-2.42 1.49-5.75 2.05-10 1.68l-1.77-.15-1.21 13.78zm2.03-23.23.52.07c1.38.12 2.52-.21 3.41-.98s1.4-1.89 1.53-3.37c.13-1.45-.17-2.67-.89-3.65-.72-1-1.7-1.55-2.93-1.66l-.79-.07-.84 9.64zM764.11 231.29l1.16-13.21c1.97 3.25 4.25 4.98 6.85 5.21q1.47.135 2.46-.57c.66-.46 1.03-1.09 1.1-1.87.1-1.13-.48-2.28-1.73-3.47l-1.73-1.61c-1.15-1.04-2.13-2.05-2.92-3.04s-1.42-2-1.88-3.02q-.69-1.53-.93-3.12c-.17-1.06-.2-2.16-.1-3.3.17-1.96.8-3.97 1.9-6.04.54-.96 1.15-1.83 1.82-2.6s1.43-1.44 2.26-2.01c2.3-1.63 4.97-2.31 8-2.04 2.71.24 5.37 1.19 7.98 2.87l-1.12 12.86c-.8-1.52-1.76-2.74-2.86-3.67-1.11-.93-2.23-1.44-3.38-1.54-.87-.08-1.61.12-2.22.58-.62.44-.97 1-1.03 1.69-.1 1.13.58 2.31 2.02 3.55l1.68 1.49c2.25 1.93 3.81 3.86 4.68 5.76.89 1.91 1.24 4.08 1.02 6.51-.36 4.14-1.92 7.44-4.68 9.91s-6.07 3.53-9.94 3.19q-4.005-.345-8.43-2.52zM792.641 234.83l3.68-42.06 21.11 1.85-.86 9.89-9.75-.85-.54 6.13 8.74.76-.83 9.51-8.74-.76-.56 6.43 9.75.85-.88 10.11-21.11-1.85zM845.61 226.43l-1.72 12.09c-2.61.8-4.92 1.11-6.92.93-4.7-.41-8.51-2.48-11.42-6.21-3.26-4.18-4.58-9.82-3.96-16.9.58-6.63 2.73-11.8 6.46-15.52 3.73-3.7 8.41-5.3 14.06-4.81q2.745.24 5.52 1.53l-1.05 12.01c-1.54-1.84-3.2-2.83-4.98-2.99-2.33-.2-4.23.63-5.71 2.49-1.48 1.88-2.38 4.59-2.69 8.11q-.225 2.565.09 4.62c.21 1.37.58 2.55 1.1 3.53s1.21 1.75 2.06 2.32 1.84.9 2.99 1c1.96.17 4.01-.56 6.15-2.21zM881.06 242.57l-12.29-1.08-4.3-15.47c-.03-.26-.1-.6-.2-1.03s-.22-.94-.37-1.54l-.16 2.79-1.29 14.71-11.3-.99 3.68-42.06 11.63 1.02c5.12.45 8.86 1.79 11.23 4.03 3.01 2.86 4.3 6.67 3.89 11.43-.45 5.08-2.92 8.41-7.43 9.97l6.92 18.23zm-16.58-24.21.76.07c1.31.11 2.44-.29 3.4-1.21s1.51-2.16 1.64-3.7c.28-3.14-1.23-4.86-4.52-5.14l-.41-.04-.88 10.02zM887.051 243.09l3.68-42.06 21.11 1.85-.86 9.89-9.75-.85-.54 6.13 8.74.76-.83 9.51-8.74-.76-.56 6.43 9.75.85-.88 10.11-21.11-1.85zM929.92 246.84l-11.36-.99 2.8-31.98-6.27-.55.88-10.08 24.13 2.11-.88 10.08-6.51-.57-2.8 31.98zM954.089 273.17c-.17 0-.35 0-.52-.02l-9.96-.87 1.05-11.96 3.98.35.35-3.99 11.96 1.04-.87 9.96c-.14 1.59-.9 3.05-2.12 4.07-1.08.91-2.45 1.4-3.86 1.4zM931.171 271.18l-20.72-1.81 1.04-11.96 20.72 1.81zm-33.15-2.9-20.72-1.81 1.04-11.96 20.72 1.81zm-33.16-2.9-20.72-1.81 1.05-11.96 20.72 1.81zm-33.15-2.9-20.72-1.81 1.05-11.96 20.72 1.81zm-33.15-2.9-20.72-1.81 1.05-11.96 20.72 1.81zm-33.16-2.9-20.72-1.81 1.05-11.96 20.72 1.81zm-33.15-2.9-20.72-1.81 1.04-11.96 20.72 1.81zm-33.15-2.9-20.72-1.81 1.04-11.96 20.72 1.81zm-33.16-2.9-20.72-1.81 1.04-11.96 20.72 1.81zM632.791 245.08l-9.96-.87a6.002 6.002 0 0 1-5.45-6.5l.87-9.96 11.96 1.05-.35 3.98 3.98.35-1.04 11.96zM630.999 219.67l-11.96-1.04 1.33-15.21 11.96 1.04zm2.13-24.33-11.96-1.04 1.33-15.21 11.96 1.04zM635.261 171.01l-11.96-1.05.87-9.96c.29-3.3 3.19-5.74 6.5-5.45l9.96.87-1.04 11.96-3.99-.35-.35 3.99zM937.969 193.48l-20.719-1.81 1.039-11.96 20.721 1.81zm-33.149-2.9-20.721-1.81 1.041-11.96 20.719 1.81zm-33.161-2.9-20.719-1.81 1.039-11.96 20.721 1.81zm-33.149-2.9-20.721-1.81 1.041-11.96 20.719 1.81zm-33.151-2.9-20.719-1.81 1.05-11.96 20.719 1.81zm-33.159-2.9-20.721-1.81 1.051-11.96 20.72 1.81zm-33.151-2.9-20.719-1.81 1.05-11.96 20.719 1.81zm-33.149-2.9-20.72-1.81 1.039-11.96 20.721 1.81zm-33.16-2.9-20.72-1.81 1.04-11.96 20.72 1.81zM965.991 199.95l-11.96-1.05.35-3.98-3.99-.35 1.05-11.96 9.96.87c3.3.29 5.74 3.2 5.45 6.5l-.87 9.96zM961.739 248.6l-11.96-1.04 1.33-15.21 11.96 1.04zm2.12-24.32-11.96-1.04 1.33-15.21 11.96 1.04z" style="fill:#ef7d7d"/><path d="M532.671 146.71c11.43-9.1 29.8-10.96 42.31-2.35 4.22 2.81 7.76 6.75 9.83 11.36 1.95 4.23.11 9.23-4.12 11.19-3.83 1.88-8.47-.23-12.07-1.22-3.82-1.24-7.78-2.29-11.63-2.95-6.22-1.03-12.59-.45-19.57-.87-7.76-.49-10.78-10.38-4.76-15.15zM476.67 161.88c-6.91.39-13.12-.16-19.26.85-3.14.54-6.29 1.31-9.46 2.28-2.47.65-4.41 1.5-7.14 2.11l-1.88.38a8.423 8.423 0 0 1-9.94-6.58c-1.22-6.24 5.65-13.34 10.44-16.58 12.51-8.61 30.88-6.76 42.31 2.35 6.2 4.95 2.76 14.97-5.08 15.17zM567.511 222.06a27 27 0 0 0-3.77-1.59c6.88-4.22 11.47-11.81 11.47-20.47 0-13.25-10.75-24-24-24s-24 10.75-24 24c0 8.66 4.59 16.25 11.47 20.47-1.33.45-2.59.98-3.77 1.59-2.45 1.27-3.41 4.29-2.14 6.74s4.29 3.41 6.74 2.14c6.34-3.28 17.06-3.28 23.41 0 .73.38 1.52.56 2.29.56 1.81 0 3.56-.99 4.45-2.7 1.27-2.45.31-5.47-2.14-6.74zM479.511 222.06a27 27 0 0 0-3.77-1.59c6.88-4.22 11.47-11.81 11.47-20.47 0-13.25-10.75-24-24-24s-24 10.75-24 24c0 8.66 4.59 16.25 11.47 20.47-1.33.45-2.59.98-3.77 1.59-2.45 1.27-3.41 4.29-2.14 6.74s4.29 3.41 6.74 2.14c6.34-3.28 17.06-3.28 23.41 0 .73.38 1.52.56 2.29.56 1.81 0 3.56-.99 4.45-2.7 1.27-2.45.31-5.47-2.14-6.74zM557.221 240h-100.01c-6.63 0-12 5.37-12 12 0 34.19 27.81 62 62 62s61.85-27.66 62-61.72V252c0-6.63-5.37-12-12-12z" style="fill:#515979"/><path d="M507.21 302c14.79 0 28.04-6.46 37.19-16.67-9.15-10.21-22.4-16.67-37.19-16.67s-28.04 6.46-37.19 16.67c9.15 10.21 22.4 16.67 37.19 16.67" style="fill:#ef7d7d"/><path d="M558.711 206a6 6 0 1 0 0-12 6 6 0 0 0 0 12M470.711 206a6 6 0 1 0 0-12 6 6 0 0 0 0 12" style="fill:#fff"/></g></g></svg>